<svg xmlns="http://www.w3.org/2000/svg" width="112" height="112" viewBox="0 0 112 112" fill="none">
    <rect width="112" height="112" rx="11" fill="white" />
    <g clip-path="url(#clip0_87_431)">
        <path
            d="M31.8583 76.404L39.4556 89.5637C41.0951 92.4065 44.7829 93.459 47.6994 91.773C50.5852 90.1053 51.577 86.418 49.9075 83.5299L45.3817 75.6897L49.3011 73.4268C50.0225 73.0096 50.27 72.0873 49.8533 71.366L47.8915 67.9681C48.1255 67.9227 49.6636 67.621 76.7875 62.3001C80.1407 62.118 82.1496 58.4508 80.4559 55.519L75.4421 46.835L78.6462 41.9821C78.9609 41.5048 78.9797 40.8913 78.6939 40.3963L75.6767 35.1703C75.3909 34.6753 74.8481 34.3854 74.2794 34.419L68.4754 34.7672L62.9094 25.1262C62.1032 23.7296 60.6588 22.8839 59.0465 22.8639C59.027 22.8633 59.0082 22.8633 58.9887 22.8633C57.4306 22.8633 56.0163 23.6388 55.1783 24.95L35.4707 50.0556L22.6587 57.4525C17.6195 60.3607 15.874 66.8254 18.7934 71.8781C21.4606 76.4983 27.0838 78.3157 31.8583 76.404ZM47.2952 85.0391C48.1284 86.4805 47.6352 88.325 46.1896 89.1601C44.7393 89.9986 42.8925 89.4836 42.0686 88.0557L34.5255 74.9891L39.7515 71.9718C48.4814 87.0946 47.1549 84.7969 47.2952 85.0391ZM43.8731 73.0762L42.3644 70.4632L44.9774 68.9546L46.486 71.5676L43.8731 73.0762ZM73.5298 37.4863L75.6148 41.0975L73.7555 43.9132L70.162 37.6884L73.5298 37.4863ZM57.7017 26.6042C58.1065 25.9418 58.7489 25.8735 59.0094 25.8805C59.2669 25.8835 59.9086 25.9636 60.2958 26.6342L77.843 57.0276C78.4146 58.0171 77.7198 59.2611 76.5736 59.2894C76.3679 59.2941 76.273 59.3312 75.7462 59.4296L57.1849 27.2801C57.5744 26.7792 57.6245 26.7309 57.7017 26.6042ZM55.1771 29.8377L72.6164 60.0437L46.2969 65.206L38.2941 51.345L55.1771 29.8377ZM21.4064 70.3695C20.744 69.2233 20.394 67.9221 20.394 66.6056C20.394 63.9148 21.8401 61.4091 24.1673 60.0655L35.9257 53.2767L43.4688 66.3416L31.7104 73.131C28.108 75.21 23.4861 73.9713 21.4064 70.3695Z"
            fill="black" />
        <path
            d="M92.3771 26.0903L83.9706 30.7682C83.2428 31.1736 82.9806 32.0923 83.386 32.8201C83.7903 33.5473 84.7084 33.8108 85.438 33.4047L93.8439 28.7268C94.5722 28.3214 94.8339 27.4027 94.4284 26.6749C94.0236 25.9465 93.1049 25.6848 92.3771 26.0903Z"
            fill="black" />
        <path
            d="M91.4953 41.715L85.6664 40.1534C84.8614 39.9377 84.0341 40.415 83.8184 41.22C83.6027 42.025 84.0806 42.8518 84.8856 43.0675L90.715 44.6292C91.5247 44.8466 92.348 44.3616 92.5625 43.5625C92.7782 42.7575 92.3002 41.9301 91.4953 41.715Z"
            fill="black" />
        <path
            d="M76.8477 20.6095L75.2842 26.4389C75.0686 27.2439 75.5459 28.0707 76.3509 28.287C77.1553 28.5021 77.9827 28.0259 78.1989 27.2203L79.7618 21.3909C79.9774 20.5859 79.5001 19.7586 78.6951 19.5429C77.8907 19.3272 77.0633 19.8045 76.8477 20.6095Z"
            fill="black" />
    </g>
    <defs>
        <clipPath id="clip0_87_431">
            <rect width="77.2414" height="77.2414" fill="white"
                transform="translate(17.3779 17.3789)" />
        </clipPath>
    </defs>
</svg>