<svg xmlns="http://www.w3.org/2000/svg" width="39" height="32" viewBox="0 0 39 32" fill="none">
    <path
        d="M14.3931 16.3983C16.2959 16.3983 17.6994 14.9515 17.6994 12.9902C17.6994 11.0288 16.2959 9.58203 14.3931 9.58203C12.4904 9.58203 11.0869 11.0288 11.0869 12.9902C11.0869 14.9515 12.4888 16.3983 14.3931 16.3983Z"
        fill="#F8F8F8" />
    <path
        d="M34.7023 0.631836H4.47386C2.38999 0.631836 0.695312 2.26968 0.695312 4.2834V28.1403C0.695312 30.154 2.38999 31.7918 4.47386 31.7918H34.7023C36.7862 31.7918 38.4808 30.154 38.4808 28.1403V4.2834C38.4808 2.26968 36.7862 0.631836 34.7023 0.631836ZM34.7023 27.8968L4.47386 27.8754V4.52684L34.7023 4.54826V27.8968Z"
        fill="#F8F8F8" />
    <path
        d="M21.4769 10.5762H28.0894V13.9843H21.4769V10.5762ZM23.13 17.3924H28.0894V20.8005H23.13V17.3924ZM20.5346 21.7139C20.5346 19.3725 17.764 16.9664 14.3933 16.9664C11.0226 16.9664 8.25195 19.3725 8.25195 21.7139V22.5046H20.5346V21.7139Z"
        fill="#F8F8F8" />
</svg>