<svg xmlns="http://www.w3.org/2000/svg" width="28" height="28" viewBox="0 0 28 28" fill="none">
    <path
        d="M13.8676 -0.00012207C11.1963 -0.00012207 8.58504 0.810113 6.36394 2.32812C4.14284 3.84614 2.4117 6.00374 1.38944 8.5281C0.36718 11.0525 0.0997102 13.8302 0.620854 16.51C1.142 19.1899 2.42835 21.6515 4.31724 23.5836C6.20613 25.5156 8.61273 26.8314 11.2327 27.3644C13.8527 27.8975 16.5683 27.6239 19.0363 26.5783C21.5042 25.5326 23.6136 23.7619 25.0977 21.4901C26.5818 19.2182 27.374 16.5472 27.374 13.8149C27.3671 10.1531 25.9419 6.64325 23.4105 4.05395C20.879 1.46466 17.4476 0.00689963 13.8676 -0.00012207ZM18.5429 9.56411C18.8511 9.56411 19.1524 9.65759 19.4087 9.83275C19.665 10.0079 19.8647 10.2569 19.9827 10.5481C20.1007 10.8394 20.1315 11.1599 20.0714 11.4691C20.0112 11.7783 19.8628 12.0624 19.6449 12.2853C19.4269 12.5082 19.1492 12.66 18.8469 12.7216C18.5446 12.7831 18.2313 12.7515 17.9465 12.6308C17.6618 12.5102 17.4184 12.3059 17.2471 12.0437C17.0759 11.7816 16.9845 11.4734 16.9845 11.1581C16.9845 10.7354 17.1487 10.3299 17.4409 10.031C17.7332 9.73205 18.1296 9.56411 18.5429 9.56411ZM9.19238 9.56411C9.50061 9.56411 9.80191 9.65759 10.0582 9.83275C10.3145 10.0079 10.5142 10.2569 10.6322 10.5481C10.7501 10.8394 10.781 11.1599 10.7209 11.4691C10.6607 11.7783 10.5123 12.0624 10.2944 12.2853C10.0764 12.5082 9.79872 12.66 9.49642 12.7216C9.19411 12.7831 8.88077 12.7515 8.596 12.6308C8.31124 12.5102 8.06785 12.3059 7.8966 12.0437C7.72536 11.7816 7.63396 11.4734 7.63396 11.1581C7.63396 10.7354 7.79815 10.3299 8.09041 10.031C8.38267 9.73205 8.77906 9.56411 9.19238 9.56411ZM20.1663 17.5343C19.528 18.6653 18.6099 19.6045 17.5042 20.2575C16.3986 20.9105 15.1444 21.2543 13.8676 21.2543C12.5909 21.2543 11.3367 20.9105 10.231 20.2575C9.12539 19.6045 8.20729 18.6653 7.56903 17.5343C7.48772 17.4136 7.43168 17.2771 7.40445 17.1332C7.37721 16.9893 7.37936 16.8413 7.41076 16.6983C7.44216 16.5553 7.50213 16.4205 7.58691 16.3024C7.67168 16.1842 7.77943 16.0853 7.90338 16.0118C8.02733 15.9383 8.1648 15.8918 8.30716 15.8753C8.44951 15.8587 8.59367 15.8725 8.73058 15.9157C8.86749 15.9589 8.99419 16.0305 9.10272 16.1262C9.21124 16.2219 9.29925 16.3395 9.36121 16.4716C9.81877 17.2797 10.476 17.9505 11.2669 18.4168C12.0578 18.8832 12.9547 19.1286 13.8676 19.1286C14.7806 19.1286 15.6775 18.8832 16.4684 18.4168C17.2593 17.9505 17.9165 17.2797 18.3741 16.4716C18.5225 16.2514 18.7466 16.0965 19.0018 16.0379C19.2569 15.9792 19.5243 16.0212 19.7506 16.1553C19.9768 16.2895 20.1453 16.506 20.2223 16.7616C20.2994 17.0172 20.2794 17.2931 20.1663 17.5343Z"
        fill="#215ADD" />
</svg>