<svg xmlns="http://www.w3.org/2000/svg" width="20" height="19" viewBox="0 0 20 19" fill="none">
    <path
        d="M9.60742 0C7.7285 0 5.89177 0.557165 4.32951 1.60104C2.76724 2.64491 1.5496 4.12861 0.83057 5.86451C0.111538 7.6004 -0.0765936 9.51054 0.289966 11.3534C0.656525 13.1962 1.56131 14.8889 2.88991 16.2175C4.21851 17.5461 5.91125 18.4509 7.75407 18.8175C9.59689 19.184 11.507 18.9959 13.2429 18.2769C14.9788 17.5578 16.4625 16.3402 17.5064 14.7779C18.5503 13.2156 19.1074 11.3789 19.1074 9.5C19.1074 6.98044 18.1065 4.56408 16.3249 2.78249C14.5433 1.00089 12.127 0 9.60742 0ZM9.60742 17.5385C8.01757 17.5385 6.46341 17.067 5.1415 16.1837C3.81958 15.3005 2.78927 14.045 2.18086 12.5762C1.57244 11.1073 1.41326 9.49108 1.72342 7.93177C2.03359 6.37246 2.79918 4.94015 3.92337 3.81595C5.04757 2.69175 6.47989 1.92616 8.0392 1.61599C9.59851 1.30583 11.2148 1.46502 12.6836 2.07343C14.1524 2.68184 15.4079 3.71215 16.2912 5.03407C17.1744 6.35599 17.6459 7.91014 17.6459 9.5C17.6459 11.6319 16.799 13.6765 15.2915 15.184C13.784 16.6916 11.7394 17.5385 9.60742 17.5385ZM13.0493 11.9042C13.1258 11.9697 13.188 12.0504 13.2318 12.141C13.2757 12.2317 13.3004 12.3304 13.3042 12.4311C13.3081 12.5317 13.2912 12.6321 13.2544 12.7259C13.2177 12.8196 13.162 12.9048 13.0907 12.976C13.0195 13.0472 12.9344 13.103 12.8406 13.1397C12.7468 13.1764 12.6464 13.1934 12.5458 13.1895C12.4452 13.1856 12.3464 13.161 12.2558 13.1171C12.1651 13.0732 12.0845 13.0111 12.019 12.9346L9.09589 10.0115C8.9582 9.87661 8.8794 9.69275 8.87666 9.5V3.65385C8.87666 3.46003 8.95365 3.27416 9.09069 3.13711C9.22774 3.00007 9.41361 2.92308 9.60742 2.92308C9.80124 2.92308 9.98711 3.00007 10.1242 3.13711C10.2612 3.27416 10.3382 3.46003 10.3382 3.65385V9.20038L13.0493 11.9042Z"
        fill="white" />
</svg>