<svg xmlns="http://www.w3.org/2000/svg" width="28" height="26" viewBox="0 0 28 26" fill="none">
<path d="M17.5807 12.3504L6.51172 10.4004V24.8094C6.51185 24.9659 6.54281 25.1209 6.60284 25.2655C6.66286 25.41 6.75077 25.5414 6.86155 25.652C6.97233 25.7626 7.10381 25.8503 7.24848 25.91C7.39315 25.9698 7.54818 26.0005 7.70472 26.0004H26.8047C26.9614 26.0008 27.1167 25.9703 27.2616 25.9106C27.4065 25.8509 27.5382 25.7633 27.6492 25.6527C27.7602 25.5421 27.8483 25.4106 27.9084 25.2659C27.9686 25.1212 27.9996 24.9661 27.9997 24.8094V19.5004L17.5807 12.3504Z" fill="#185C37"/>
<path d="M17.5807 4.19853e-07H7.70472C7.54818 -0.000130957 7.39315 0.0305709 7.24848 0.0903532C7.10381 0.150135 6.97233 0.237827 6.86155 0.348422C6.75077 0.459016 6.66286 0.590348 6.60284 0.734918C6.54281 0.879487 6.51185 1.03446 6.51172 1.191V6.5L17.5807 13L23.4417 14.95L27.9997 13V6.5L17.5807 4.19853e-07Z" fill="#21A366"/>
<path d="M6.51172 6.5H17.5807V13H6.51172V6.5Z" fill="#107C41"/>
<path opacity="0.1" d="M14.4337 5.20007H6.51172V21.4501H14.4337C14.7494 21.4485 15.0517 21.3226 15.2752 21.0997C15.4987 20.8767 15.6254 20.5747 15.6277 20.2591V6.39107C15.6254 6.07541 15.4987 5.7734 15.2752 5.55046C15.0517 5.32753 14.7494 5.20164 14.4337 5.20007Z" fill="black"/>
<path opacity="0.2" d="M13.7827 5.84961H6.51172V22.0996H13.7827C14.0984 22.098 14.4007 21.9721 14.6242 21.7492C14.8477 21.5263 14.9744 21.2243 14.9767 20.9086V7.04061C14.9744 6.72495 14.8477 6.42293 14.6242 6.2C14.4007 5.97707 14.0984 5.85118 13.7827 5.84961Z" fill="black"/>
<path opacity="0.2" d="M13.7827 5.84961H6.51172V20.7996H13.7827C14.0984 20.798 14.4007 20.6721 14.6242 20.4492C14.8477 20.2263 14.9744 19.9243 14.9767 19.6086V7.04061C14.9744 6.72495 14.8477 6.42293 14.6242 6.2C14.4007 5.97707 14.0984 5.85118 13.7827 5.84961Z" fill="black"/>
<path opacity="0.2" d="M13.1317 5.84961H6.51172V20.7996H13.1317C13.4474 20.798 13.7497 20.6721 13.9732 20.4492C14.1967 20.2263 14.3234 19.9243 14.3257 19.6086V7.04061C14.3234 6.72495 14.1967 6.42293 13.9732 6.2C13.7497 5.97707 13.4474 5.85118 13.1317 5.84961Z" fill="black"/>
<path d="M1.194 5.84961H13.132C13.4482 5.84935 13.7516 5.97464 13.9755 6.19797C14.1994 6.4213 14.3255 6.72438 14.326 7.04061V18.9586C14.3255 19.2748 14.1994 19.5779 13.9755 19.8012C13.7516 20.0246 13.4482 20.1499 13.132 20.1496H1.194C1.03738 20.1499 0.882244 20.1193 0.737458 20.0595C0.592672 19.9998 0.461075 19.9121 0.350189 19.8015C0.239303 19.6909 0.151301 19.5596 0.0912137 19.4149C0.0311263 19.2703 0.000131172 19.1152 0 18.9586V7.04061C0.000131172 6.88399 0.0311263 6.72893 0.0912137 6.5843C0.151301 6.43966 0.239303 6.30829 0.350189 6.19768C0.461075 6.08707 0.592672 5.9994 0.737458 5.93968C0.882244 5.87995 1.03738 5.84935 1.194 5.84961Z" fill="url(#paint0_linear_2298_4786)"/>
<path d="M3.7002 16.873L6.2112 12.989L3.9112 9.12695H5.7582L7.01319 11.6C7.12919 11.834 7.2132 12.008 7.2512 12.124H7.26819C7.35019 11.936 7.43719 11.755 7.52819 11.578L8.87019 9.13095H10.5702L8.2112 12.971L10.6302 16.876H8.8212L7.3712 14.165C7.30387 14.0484 7.24666 13.9263 7.20019 13.8H7.17619C7.13391 13.923 7.07754 14.0408 7.0082 14.151L5.5152 16.873H3.7002Z" fill="white"/>
<path d="M26.8061 1.6787e-06H17.5811V6.5H28.0001V1.191C27.9999 1.03438 27.9689 0.879323 27.9088 0.734688C27.8488 0.590053 27.7607 0.458677 27.6499 0.348069C27.539 0.237462 27.4074 0.149791 27.2626 0.0900671C27.1178 0.0303438 26.9627 -0.000261161 26.8061 1.6787e-06Z" fill="#33C481"/>
<path d="M17.5811 13H28.0001V19.5H17.5811V13Z" fill="#107C41"/>
<defs>
<linearGradient id="paint0_linear_2298_4786" x1="2.494" y1="4.91361" x2="11.832" y2="21.0856" gradientUnits="userSpaceOnUse">
<stop stop-color="#18884F"/>
<stop offset="0.5" stop-color="#117E43"/>
<stop offset="1" stop-color="#0B6631"/>
</linearGradient>
</defs>
</svg>