<svg xmlns="http://www.w3.org/2000/svg" width="36" height="32" viewBox="0 0 36 32" fill="none">
    <path
        d="M22.8 24.5992C23.8602 24.6037 24.8814 24.2448 25.6515 23.5972C26.4216 22.9496 26.8812 22.0631 26.9348 21.122C26.9348 21.1063 26.9348 21.0906 26.9348 21.0718L30.9459 17.0674C31.3532 16.6477 31.9268 16.3835 32.5474 16.3297C33.1681 16.276 33.7883 16.4367 34.2791 16.7786C34.5221 16.9573 34.7223 17.1773 34.8681 17.4258C35.0139 17.6743 35.1022 17.9462 35.1279 18.2256C35.1536 18.5049 35.1161 18.7859 35.0176 19.0522C34.9191 19.3184 34.7617 19.5644 34.5545 19.7757L26.5464 27.9352C26.0186 28.4728 25.3673 28.9037 24.6364 29.1987C23.9055 29.4937 23.112 29.6461 22.3092 29.6456H10.2723L8.18195 31.5034L0.724609 25.0417L6.06692 20.3343C7.1518 19.376 8.51835 18.7084 10.0102 18.4082C11.502 18.1079 13.0588 18.1871 14.5023 18.6365L15.6746 19.0037H22.8954C23.2 19.0036 23.5016 19.0578 23.7822 19.1633C24.0628 19.2688 24.3167 19.4233 24.5288 19.6176C24.7409 19.812 24.9069 20.0423 25.0169 20.2948C25.1269 20.5473 25.1787 20.8169 25.1693 21.0875C25.1304 21.6197 24.8627 22.1182 24.4217 22.4798C23.9806 22.8414 23.4 23.0385 22.8 23.0301H18.4676C18.2334 23.0301 18.0089 23.1127 17.8434 23.2599C17.6778 23.407 17.5848 23.6066 17.5848 23.8147C17.5848 24.0227 17.6778 24.2223 17.8434 24.3694C18.0089 24.5166 18.2334 24.5992 18.4676 24.5992H22.8ZM18.4287 9.58572C19.0114 9.87926 19.6195 10.1311 20.2472 10.3389C20.5155 10.4331 20.7839 10.5303 21.0487 10.6339C21.3648 10.7539 21.6607 10.9124 21.9279 11.1046C22.0834 11.1993 22.2063 11.3305 22.2828 11.4836C22.3594 11.6367 22.3865 11.8056 22.3612 11.9717C22.336 12.1377 22.2593 12.2942 22.1397 12.4237C22.0202 12.5532 21.8625 12.6507 21.6842 12.7052C21.2052 12.8842 20.6806 12.9449 20.1659 12.8809C19.3165 12.7982 18.491 12.5792 17.7296 12.2344C17.5705 12.1471 17.39 12.0954 17.2035 12.0838C16.7798 12.0838 16.6491 12.4635 16.575 12.6675C16.4373 13.0598 16.3137 13.4552 16.1936 13.8506C15.9959 14.4971 16.1195 14.7388 16.801 15.0338C17.5498 15.336 18.3445 15.539 19.1596 15.6363C19.2891 15.649 19.4169 15.6732 19.541 15.7085C19.5677 15.8294 19.5784 15.9526 19.5727 16.0757V16.8508C19.5656 16.9497 19.5821 17.0489 19.6212 17.1417C19.6602 17.2346 19.7209 17.3191 19.7993 17.3896C19.8776 17.4601 19.9719 17.5151 20.0758 17.551C20.1798 17.5869 20.2911 17.6028 20.4025 17.5977H21.0028H21.709C21.8178 17.6031 21.9266 17.5875 22.0281 17.5522C22.1295 17.5168 22.2212 17.4624 22.2969 17.3928C22.3726 17.3231 22.4306 17.2398 22.4668 17.1484C22.5031 17.0571 22.5168 16.9598 22.507 16.8634C22.507 16.7473 22.507 16.628 22.507 16.5119C22.507 16.2734 22.507 16.0317 22.507 15.7932C22.507 15.5547 22.5705 15.4794 22.8601 15.4072C23.7958 15.1888 24.6299 14.7132 25.2434 14.0483C25.6393 13.6239 25.9249 13.1271 26.08 12.5934C26.235 12.0596 26.2556 11.502 26.1403 10.9603C26.0106 10.3829 25.7393 9.83801 25.3457 9.36446C24.952 8.89091 24.4457 8.50034 23.8628 8.22057C23.1989 7.90924 22.5151 7.6326 21.8149 7.39206L21.5465 7.29478C21.1364 7.14856 20.7514 6.95209 20.4025 6.71106C20.2818 6.63341 20.1858 6.52927 20.124 6.40881C20.0621 6.28835 20.0364 6.15569 20.0494 6.02377C20.0776 5.88901 20.1449 5.76313 20.2446 5.65855C20.3443 5.55398 20.473 5.47434 20.6179 5.4275C20.8293 5.35293 21.0543 5.31357 21.2817 5.31138C22.2156 5.26109 23.1483 5.42537 23.99 5.7884C24.8586 6.16186 25.0492 5.60011 25.1199 5.3616C25.2364 5.04777 25.3388 4.73394 25.4412 4.40442L25.5612 4.02783C25.5978 3.93933 25.614 3.84519 25.6089 3.75101C25.6037 3.65684 25.5773 3.56454 25.5311 3.47963C25.485 3.39472 25.4202 3.31892 25.3404 3.25675C25.2606 3.19457 25.1676 3.1473 25.0669 3.11773C24.4686 2.88313 23.8383 2.71958 23.192 2.6313C22.6094 2.5497 22.6094 2.5497 22.6094 2.02875C22.6094 0.93349 22.514 0.773438 21.31 0.773438H20.6603C19.9541 0.792267 19.7634 0.977425 19.7458 1.59253C19.7458 1.73689 19.7458 1.87811 19.7458 2.01933V2.24843C19.7458 2.70975 19.7458 2.70975 19.2302 2.87608C17.3518 3.48177 16.3419 4.6241 16.229 6.26856C16.1266 7.65254 16.8504 8.74466 18.4287 9.58572Z"
        fill="#215ADD" />
</svg>