<svg xmlns="http://www.w3.org/2000/svg" width="27" height="29" viewBox="0 0 27 29" fill="none">
    <path
        d="M23.5489 5.95629C23.5489 7.7941 22.1275 9.28389 20.3742 9.28389C18.6207 9.28389 17.1992 7.7941 17.1992 5.95629C17.1992 4.11869 18.6207 2.62891 20.3742 2.62891C22.1275 2.62891 23.5489 4.11869 23.5489 5.95629Z"
        fill="#215ADD" />
    <path
        d="M14.8783 10.2659L13.3714 7.89765V3.85671C13.3714 2.24425 12.1305 0.915039 10.5652 0.915039H3.2091C1.65171 0.915039 0.402344 2.23633 0.402344 3.85671V8.56787C0.402344 10.1845 1.64714 11.5093 3.2091 11.5093H14.2434C14.8512 11.5093 15.2161 10.797 14.8783 10.2659ZM6.86559 8.51122H4.45628C4.04532 8.51122 3.69179 8.17986 3.67272 7.74956C3.65265 7.29011 4.0012 6.91168 4.43502 6.91168H6.88725C7.32026 6.91168 7.66962 7.29011 7.64935 7.74935C7.63047 8.17986 7.27674 8.51122 6.86559 8.51122ZM9.33928 5.5127H4.45668C4.04592 5.5127 3.69259 5.18216 3.67292 4.75229C3.65185 4.29283 4.00081 3.91315 4.43502 3.91315H9.31762C9.72878 3.91315 10.0825 4.24451 10.1014 4.67502C10.1217 5.13426 9.7723 5.5127 9.33928 5.5127Z"
        fill="#215ADD" />
    <path
        d="M6.32929 20.7586C3.04258 20.7705 0.40332 23.6143 0.40332 27.0589V27.2343C0.40332 27.776 0.822232 28.2151 1.33911 28.2151H11.3614C11.8783 28.2151 12.2972 27.776 12.2972 27.2343V26.9912C12.2972 23.5416 9.62334 20.7466 6.32929 20.7586Z"
        fill="#215ADD" />
    <path
        d="M10.096 16.8329C10.096 19.0004 8.41957 20.7576 6.35123 20.7576C4.28309 20.7576 2.60645 19.0004 2.60645 16.8329C2.60645 14.6654 4.28309 12.9082 6.35123 12.9082C8.41957 12.9082 10.096 14.6654 10.096 16.8329Z"
        fill="#215ADD" />
    <path
        d="M25.1916 13.7656H15.5596C15.8435 11.2422 17.8912 9.28418 20.3759 9.28418C22.86 9.28418 24.9076 11.2422 25.1916 13.7656Z"
        fill="#215ADD" />
    <path
        d="M25.6872 15.4181C26.1087 15.4181 26.4503 15.7761 26.4503 16.2179V25.7016C26.4503 26.1559 26.0886 26.5222 25.65 26.5004C25.24 26.48 24.9241 26.1094 24.9241 25.6787V24.7877H13.522C13.0091 22.9578 11.8751 21.4031 10.376 20.3948C11.1522 19.4324 11.6214 18.189 11.6214 16.8331C11.6214 16.3443 11.5602 15.8703 11.4457 15.4181H25.6872Z"
        fill="#215ADD" />
</svg>