<svg xmlns="http://www.w3.org/2000/svg" width="34" height="34" viewBox="0 0 34 34" fill="none">
    <path
        d="M30.4985 15.7306H27.9359V14.9023C27.9359 8.49501 22.8959 3.28227 16.7009 3.28227C10.5059 3.28227 5.4659 8.49501 5.4659 14.9023V15.7306H2.90332V14.9023C2.90345 7.03356 9.09298 0.631836 16.701 0.631836C24.3091 0.631836 30.4986 7.03356 30.4986 14.9023L30.4985 15.7306Z"
        fill="#215ADD" />
    <path
        d="M16.7009 0.631836C9.09285 0.631836 2.90332 7.03356 2.90332 14.9023V15.7306H2.9046C2.95662 7.90741 9.12501 1.55949 16.7009 1.55949C24.2768 1.55949 30.4452 7.90741 30.4972 15.7306H30.4985V14.9023C30.4984 7.03356 24.309 0.631836 16.7009 0.631836Z"
        fill="#215ADD" />
    <path
        d="M30.8599 25.5651H27.5737C27.2623 25.5651 27.0098 25.304 27.0098 24.9818V14.9885C27.0098 14.6665 27.2622 14.4053 27.5737 14.4053H30.8599C31.1713 14.4053 31.4238 14.6663 31.4238 14.9885V24.9818C31.4238 25.304 31.1714 25.5651 30.8599 25.5651Z"
        fill="#215ADD" />
    <path
        d="M31.3252 22.8867V17.0838C32.2786 17.0838 33.0516 17.8831 33.0516 18.8694V21.1013C33.0516 22.0872 32.2787 22.8867 31.3252 22.8867Z"
        fill="#215ADD" />
    <path
        d="M1.97739 22.8869C1.02385 22.8869 0.250977 22.0874 0.250977 21.1013V18.8694C0.250977 17.8833 1.02385 17.0838 1.97739 17.0838V22.8869Z"
        fill="#215ADD" />
    <path
        d="M5.82782 25.5653H2.54144C2.23008 25.5653 1.97754 25.3042 1.97754 24.9821V14.9887C1.97754 14.6667 2.22995 14.4055 2.54144 14.4055H5.82769C6.13904 14.4055 6.39159 14.6666 6.39159 14.9887V24.9821C6.39159 25.3042 6.13917 25.5653 5.82782 25.5653Z"
        fill="#215ADD" />
    <path
        d="M28.389 25.5654C28.389 28.8131 25.8341 31.4556 22.6941 31.4556H21.8913C21.6489 31.1076 21.2547 30.8802 20.8084 30.8802H18.8098C18.0725 30.8802 17.4746 31.4986 17.4746 32.2612C17.4746 33.0239 18.0725 33.6422 18.8098 33.6422H20.8084C21.2548 33.6422 21.6489 33.4148 21.8913 33.0668H22.6941C26.6932 33.0668 29.9468 29.7017 29.9468 25.5654H28.389Z"
        fill="#215ADD" />
    <path
        d="M22.6941 32.1392H21.8913C21.6489 32.4872 21.2547 32.7146 20.8084 32.7146H18.8098C18.2301 32.7146 17.7379 32.3316 17.5534 31.7974C17.5033 31.9425 17.4746 32.0982 17.4746 32.2612C17.4746 33.0239 18.0725 33.6422 18.8098 33.6422H20.8084C21.2548 33.6422 21.6489 33.4148 21.8913 33.0668H22.6941C26.6932 33.0668 29.9468 29.7017 29.9468 25.5654H29.8894C29.4458 29.2653 26.3893 32.1392 22.6941 32.1392Z"
        fill="#215ADD" />
    <path
        d="M18.0444 20.582C18.0417 20.6144 18.0399 20.6466 18.0363 20.6789C18.0247 20.7843 18.0335 20.887 18.058 20.9837C18.0605 20.8488 18.0559 20.7148 18.0444 20.582Z"
        fill="#215ADD" />
</svg>