<svg xmlns="http://www.w3.org/2000/svg" width="31" height="24" viewBox="0 0 31 24" fill="none">
    <path
        d="M4.96826 0.000976562C4.96745 0.000976562 4.96653 0.000976562 4.96571 0.000976562C4.67908 0.000976562 4.40948 0.113901 4.20591 0.319125C4.00009 0.526618 3.88672 0.802897 3.88672 1.09702V17.5319C3.88672 18.1346 4.37377 18.6261 4.97255 18.6277C7.49687 18.6338 11.7261 19.1655 14.6437 22.2512V5.05155C14.6437 4.84725 14.5921 4.65533 14.4946 4.49652C12.1 0.599117 7.49829 0.00695796 4.96826 0.000976562Z"
        fill="#215ADD" />
    <path
        d="M27.084 17.5311V1.09604C27.084 0.80192 26.9706 0.525641 26.7648 0.318148C26.5612 0.112925 26.2914 0 26.0051 0H26.0025C23.4725 0.00608453 18.8709 0.598243 16.4761 4.49564C16.3787 4.65446 16.3271 4.84638 16.3271 5.05067V22.2502C19.2447 19.1645 23.474 18.6328 25.9983 18.6267C26.597 18.6251 27.084 18.1336 27.084 17.5311Z"
        fill="#215ADD" />
    <path
        d="M29.5557 3.79004H28.7694V17.5309C28.7694 19.0696 27.5289 20.3244 26.004 20.3282C23.8628 20.3334 20.3324 20.7565 17.832 23.1481C22.1564 22.0781 26.715 22.7737 29.313 23.372C29.6374 23.4467 29.9726 23.3695 30.2325 23.1602C30.4915 22.9514 30.64 22.6392 30.64 22.3041V4.88587C30.6401 4.28165 30.1536 3.79004 29.5557 3.79004Z"
        fill="#215ADD" />
    <path
        d="M2.20267 17.531V3.79013H1.41633C0.818568 3.79013 0.332031 4.28174 0.332031 4.88596V22.3039C0.332031 22.6391 0.480604 22.9511 0.739587 23.16C0.999284 23.3692 1.33419 23.4467 1.65909 23.3718C4.25708 22.7733 8.81581 22.0779 13.1399 23.1479C10.6397 20.7564 7.10926 20.3333 4.96811 20.3282C3.44329 20.3245 2.20267 19.0697 2.20267 17.531Z"
        fill="#215ADD" />
</svg>