<svg xmlns="http://www.w3.org/2000/svg" width="28" height="30" viewBox="0 0 28 30" fill="none">
<path d="M6.33691 1H19.3982C22.684 3.32713 25.549 6.19745 27.87 9.48757V29.5771H6.33691V1Z" fill="url(#paint0_linear_2298_4733)"/>
<path d="M6.33691 1H19.3982C22.684 3.32713 25.549 6.19745 27.87 9.48757V29.5771H6.33691V1Z" stroke="#C8C8C8" stroke-width="0.138581"/>
<path d="M19.3955 1C22.6772 3.33273 25.5421 6.20215 27.8696 9.48757C27.0957 8.69228 26.1575 8.07566 25.1205 7.68084C24.0834 7.28603 22.9727 7.12255 21.8659 7.20185C22.0237 6.04284 21.8792 4.8627 21.4463 3.77603C21.0135 2.68936 20.307 1.73306 19.3955 1Z" fill="url(#paint1_linear_2298_4733)"/>
<path d="M19.3955 1C22.6772 3.33273 25.5421 6.20215 27.8696 9.48757C27.0957 8.69228 26.1575 8.07566 25.1205 7.68084C24.0835 7.28603 22.9727 7.12255 21.8659 7.20185C22.0237 6.04284 21.8792 4.8627 21.4463 3.77603C21.0135 2.68936 20.307 1.73306 19.3955 1V1Z" stroke="#C8C8C8" stroke-width="0.138581"/>
<path d="M2.1416 4.75391H18.0178V7.79403H2.1416V4.75391Z" stroke="#C8C8C8" stroke-width="1.10865"/>
<path d="M13.9423 19.7961C14.4671 18.767 15.0683 17.6083 15.5412 16.4441L15.7304 15.9847C15.1066 13.6111 14.7328 11.706 15.0672 10.4742C15.1373 10.3083 15.2583 10.169 15.4127 10.0763C15.5671 9.98363 15.7469 9.94237 15.9263 9.95849H16.2123C16.7573 9.95061 17.0129 10.6431 17.0421 10.9122C17.0463 11.32 16.9929 11.7264 16.8834 12.1192C16.9101 11.7016 16.8484 11.2829 16.7021 10.8908C16.4769 10.3965 16.2618 10.1026 16.0693 10.0542C16.0008 10.1097 15.9452 10.1794 15.9063 10.2585C15.8674 10.3377 15.8462 10.4243 15.8441 10.5125C15.787 10.862 15.758 11.2156 15.7574 11.5698C15.784 12.611 15.9479 13.6442 16.245 14.6425C16.3058 14.4669 16.3576 14.298 16.4026 14.1392C16.469 13.8893 16.8901 12.2352 16.8901 12.2352C16.8901 12.2352 16.7843 14.4376 16.6357 15.1031C16.6041 15.2438 16.5692 15.3834 16.5321 15.5253C17.0306 16.9548 17.8579 18.2472 18.9473 19.2984C19.3752 19.6696 19.8436 19.9914 20.3435 20.2577C21.2816 20.1163 22.2289 20.0451 23.1776 20.0449C23.9385 19.9682 24.7038 20.1392 25.3597 20.5325C25.5042 20.6783 25.5896 20.8724 25.5995 21.0775C25.5946 21.1846 25.5792 21.2909 25.5534 21.395C25.5646 21.3376 25.5646 21.0572 24.7033 20.7802C23.5566 20.5621 22.3808 20.5457 21.2285 20.7318C22.9918 21.5943 24.7111 22.0233 25.255 21.7666C25.3698 21.6898 25.4697 21.5929 25.55 21.4806C25.5122 21.6669 25.4571 21.8493 25.3856 22.0255C25.277 22.1634 25.1289 22.2648 24.9611 22.316C24.1009 22.5412 21.8624 22.0143 19.9111 20.8996C17.7081 21.2377 15.5361 21.754 13.4165 22.4433C11.5305 25.7491 10.1118 27.2669 8.9588 26.6893L8.53431 26.4765C8.45691 26.4141 8.40029 26.3296 8.37194 26.2343C8.34359 26.139 8.34485 26.0374 8.37555 25.9428C8.50954 25.2852 9.33487 24.2932 10.9923 23.3035C11.1702 23.1909 11.9651 22.7754 11.9651 22.7754C11.9651 22.7754 11.3763 23.3452 11.2389 23.4566C9.91588 24.5409 8.93966 25.9045 8.9633 26.4337V26.4799C10.0893 26.32 11.7726 24.032 13.939 19.7927L13.9423 19.7961ZM14.6258 20.144C14.2861 20.7796 13.9385 21.4109 13.5832 22.0379C15.3895 21.314 17.2671 20.7826 19.1849 20.4525C18.9371 20.2822 18.6978 20.0999 18.4676 19.9064C17.4788 19.0536 16.6742 18.008 16.1031 16.8337C15.6855 17.9699 15.19 19.076 14.6202 20.144" fill="#F91D0A"/>
<path d="M0.352539 3.0332H19.7913V9.56721H0.352539V3.0332Z" fill="url(#paint2_linear_2298_4733)"/>
<path d="M20.1616 9.95929H0V2.6416H20.1616V9.95929ZM19.4376 3.36673H0.725125V9.23191H19.4376V3.36673Z" fill="url(#paint3_linear_2298_4733)"/>
<path d="M5.43262 3.99179H6.84684C7.02541 3.98036 7.20433 4.00775 7.3713 4.07209C7.53827 4.13643 7.68932 4.23618 7.81405 4.36448C8.05655 4.6605 8.17732 5.0377 8.15184 5.41952C8.17729 5.80305 8.05661 6.18201 7.81405 6.48019C7.68902 6.60788 7.53784 6.707 7.37088 6.77075C7.20393 6.8345 7.02515 6.86137 6.84684 6.8495H6.28385V8.36844H5.43262V3.99179ZM6.28498 4.80924V6.03205H6.75676C6.82841 6.03614 6.90006 6.02398 6.96635 5.99649C7.03264 5.969 7.09186 5.92688 7.13959 5.87329C7.23613 5.74369 7.28396 5.58424 7.27471 5.4229C7.28505 5.26143 7.23711 5.10162 7.13959 4.97251C7.09191 4.91885 7.0327 4.87669 6.9664 4.84919C6.90009 4.82169 6.82842 4.80958 6.75676 4.81375H6.28498V4.80924ZM9.60547 4.84865V7.51608H9.91061C10.0607 7.52611 10.211 7.50078 10.3494 7.44211C10.4879 7.38343 10.6106 7.29307 10.7078 7.17829C10.911 6.88742 11.0088 6.53583 10.9848 6.1818C11.0088 5.82986 10.9118 5.48029 10.71 5.19095C10.6124 5.07619 10.4892 4.98588 10.3504 4.92723C10.2116 4.86858 10.061 4.84321 9.91061 4.85316H9.60547V4.84865ZM8.75311 3.99967H9.65388C10.0302 3.9805 10.4069 4.02659 10.7675 4.13591C11.0192 4.23386 11.2384 4.40043 11.4003 4.6167C11.5584 4.82017 11.6757 5.05223 11.7459 5.30017C11.8247 5.58575 11.8627 5.88107 11.8585 6.1773C11.8627 6.47612 11.8248 6.77404 11.7459 7.06231C11.6757 7.31025 11.5584 7.54231 11.4003 7.74578C11.2364 7.96269 11.0159 8.13022 10.763 8.22994C10.4017 8.33962 10.0244 8.38722 9.64713 8.37069H8.74635V3.99179L8.75311 3.99967ZM12.5093 3.99179H14.821V4.84527H13.3685V5.65935H14.7298V6.51284H13.3685V8.36844H12.5161V3.99179" fill="#FFF9F9"/>
<defs>
<linearGradient id="paint0_linear_2298_4733" x1="12.623" y1="23.3861" x2="20.5882" y2="8.9903" gradientUnits="userSpaceOnUse">
<stop stop-color="white"/>
<stop offset="1" stop-color="#E1E1E1"/>
</linearGradient>
<linearGradient id="paint1_linear_2298_4733" x1="22.6552" y1="6.14456" x2="23.8803" y2="5.01521" gradientUnits="userSpaceOnUse">
<stop stop-color="white"/>
<stop offset="1" stop-color="#C8C8C8"/>
</linearGradient>
<linearGradient id="paint2_linear_2298_4733" x1="11.9602" y1="12.1119" x2="8.18367" y2="0.488509" gradientUnits="userSpaceOnUse">
<stop offset="0.127" stop-color="#8A0000"/>
<stop offset="0.244" stop-color="#900000" stop-opacity="0.999"/>
<stop offset="0.398" stop-color="#A00000" stop-opacity="0.999"/>
<stop offset="0.573" stop-color="#BC0000" stop-opacity="0.998"/>
<stop offset="0.761" stop-color="#E20000" stop-opacity="0.997"/>
<stop offset="0.867" stop-color="#FA0000" stop-opacity="0.996"/>
</linearGradient>
<linearGradient id="paint3_linear_2298_4733" x1="12.1188" y1="12.5727" x2="8.04394" y2="0.0282226" gradientUnits="userSpaceOnUse">
<stop offset="0.315" stop-color="#5E0000"/>
<stop offset="0.444" stop-color="#830000" stop-opacity="0.999"/>
<stop offset="0.618" stop-color="#AE0000" stop-opacity="0.998"/>
<stop offset="0.775" stop-color="#CD0000" stop-opacity="0.997"/>
<stop offset="0.908" stop-color="#E00000" stop-opacity="0.996"/>
<stop offset="1" stop-color="#E70000" stop-opacity="0.996"/>
</linearGradient>
</defs>
</svg>