<svg xmlns="http://www.w3.org/2000/svg" width="25" height="30" viewBox="0 0 25 30" fill="none">
    <path
        d="M22.5752 3.28711H21.748V24.1406C21.748 25.5259 20.6491 26.6536 19.2991 26.6536H10.9183H4.25391V27.4266C4.25391 28.3119 4.95403 29.0303 5.81662 29.0303H14.1944H22.5722C23.4348 29.0303 24.1349 28.3119 24.1349 27.4266V4.89075C24.1349 4.00557 23.4378 3.28711 22.5752 3.28711Z"
        fill="#215ADD" />
    <path
        d="M10.919 25.7432H19.2968C20.1594 25.7432 20.8595 25.0247 20.8595 24.1396V3.28611V1.60365C20.8595 0.718457 20.1594 0 19.2968 0H10.919H8.1333V0.530506C8.13918 0.585073 8.14216 0.642671 8.14216 0.700269V4.19555V5.09286C8.14216 6.33879 7.1555 7.3513 5.94136 7.3513H5.06695H1.66089C1.61658 7.3513 1.56931 7.34827 1.525 7.34524H0.981445V24.1396C0.981445 25.0247 1.68157 25.7432 2.54416 25.7432H4.25753H10.919ZM11.2351 20.2926H5.77298C5.36532 20.2926 5.03446 19.9531 5.03446 19.5348C5.03446 19.1164 5.36532 18.7769 5.77298 18.7769H11.2381C11.6457 18.7769 11.9766 19.1164 11.9766 19.5348C11.9766 19.9531 11.6428 20.2926 11.2351 20.2926ZM16.7002 16.4245H5.77298C5.36532 16.4245 5.03446 16.085 5.03446 15.6666C5.03446 15.2483 5.36532 14.9088 5.77298 14.9088H16.7002C17.1078 14.9088 17.4387 15.2483 17.4387 15.6666C17.4387 16.085 17.1078 16.4245 16.7002 16.4245ZM5.77298 10.8011H16.7002C17.1078 10.8011 17.4387 11.1406 17.4387 11.559C17.4387 11.9773 17.1078 12.3168 16.7002 12.3168H5.77298C5.36532 12.3168 5.03446 11.9773 5.03446 11.559C5.03446 11.1406 5.36532 10.8011 5.77298 10.8011Z"
        fill="#215ADD" />
    <path
        d="M1.66133 6.44203H5.94181C5.94477 6.44203 5.95067 6.44203 5.95363 6.44203C6.66852 6.43596 7.24752 5.8418 7.25343 5.10818C7.25343 5.10515 7.25343 5.09909 7.25343 5.09606V0.700431C7.25343 0.294215 6.92848 0.0244141 6.59174 0.0244141C6.42927 0.0244141 6.26679 0.0850434 6.1309 0.224491L1.19459 5.29007C0.781016 5.71447 1.07347 6.44203 1.66133 6.44203Z"
        fill="#215ADD" />
</svg>