<svg xmlns="http://www.w3.org/2000/svg" width="31" height="31" viewBox="0 0 31 31" fill="none">
    <path fill-rule="evenodd" clip-rule="evenodd"
        d="M0.805664 -0.00012207H26.5592V4.27731H24.8977V1.71085H2.46718V21.387H20.2346V23.098H0.805664V-0.00012207ZM25.7284 11.1212C26.3894 11.1212 27.0234 10.8508 27.4907 10.3695C27.9581 9.8882 28.2207 9.23541 28.2207 8.55475C28.2207 7.87408 27.9581 7.22129 27.4907 6.73998C27.0234 6.25868 26.3894 5.98829 25.7284 5.98829C25.0675 5.98829 24.4335 6.25868 23.9661 6.73998C23.4987 7.22129 23.2362 7.87408 23.2362 8.55475C23.2362 9.23541 23.4987 9.8882 23.9661 10.3695C24.4335 10.8508 25.0675 11.1212 25.7284 11.1212ZM27.4157 12.8407C28.4949 12.8407 29.3489 13.3403 29.908 14.112C30.4305 14.8349 30.6515 15.7289 30.7014 16.5544C30.7502 17.4012 30.6382 18.2498 30.3716 19.0524C30.1223 19.7967 29.7011 20.5666 29.0515 21.0945V29.5142C29.0521 29.8366 28.9348 30.1474 28.723 30.3848C28.5112 30.6222 28.2203 30.7689 27.9083 30.7955C27.5963 30.8221 27.2859 30.7268 27.039 30.5286C26.7921 30.3303 26.6268 30.0436 26.5758 29.7255L25.5041 23.098H25.2566L24.0453 29.7503C23.9878 30.0643 23.8186 30.3448 23.5709 30.5371C23.3231 30.7295 23.0146 30.8197 22.7056 30.7901C22.3967 30.7606 22.1096 30.6135 21.9004 30.3775C21.6912 30.1415 21.5751 29.8337 21.5746 29.5142V17.3089C21.4085 17.5695 21.2446 17.8316 21.0828 18.0951L21.018 18.2004L21.0014 18.2277L20.9973 18.2354C20.8853 18.4206 20.7294 18.5732 20.5442 18.6791C20.359 18.7849 20.1507 18.8404 19.9389 18.8403H15.7851C15.4546 18.8403 15.1376 18.7051 14.9039 18.4644C14.6702 18.2238 14.5389 17.8974 14.5389 17.557C14.5389 17.2167 14.6702 16.8903 14.9039 16.6497C15.1376 16.409 15.4546 16.2738 15.7851 16.2738H19.2552C19.457 15.9521 19.7229 15.5347 20.002 15.1155C20.2928 14.6783 20.6135 14.2155 20.8992 13.8528C21.038 13.6757 21.1933 13.4909 21.3495 13.3395C21.4259 13.2651 21.5323 13.1684 21.6619 13.0828C21.8906 12.9282 22.1576 12.8445 22.4312 12.8416L27.4157 12.8407Z"
        fill="#215ADD" />
</svg>